<svg width="41" height="40" viewBox="0 0 41 40" fill="none" xmlns="http://www.w3.org/2000/svg">
<path d="M20.6172 12.4501V19.8236" stroke="white" stroke-width="1.5" stroke-linecap="round" stroke-linejoin="round"/>
<path d="M27.0486 23.5105L20.6172 19.8237" stroke="white" stroke-width="1.5" stroke-linecap="round" stroke-linejoin="round"/>
<path d="M29.3066 15.4788H35.4953V9.33417" stroke="white" stroke-width="1.5" stroke-linecap="round" stroke-linejoin="round"/>
<path d="M30.2442 29.3825C28.3401 31.273 25.9141 32.5605 23.2731 33.0821C20.632 33.6037 17.8945 33.336 15.4067 32.3129C12.9189 31.2897 10.7925 29.557 9.29649 27.334C7.80046 25.1109 7.00195 22.4973 7.00195 19.8237C7.00195 17.15 7.80046 14.5364 9.29649 12.3134C10.7925 10.0903 12.9189 8.35766 15.4067 7.3345C17.8945 6.31134 20.632 6.04363 23.2731 6.56524C25.9141 7.08684 28.3401 8.37432 30.2442 10.2649L35.4954 15.4788" stroke="white" stroke-width="1.5" stroke-linecap="round" stroke-linejoin="round"/>
</svg>
