<svg width="120" height="120" viewBox="0 0 120 120" fill="none" xmlns="http://www.w3.org/2000/svg">
<path d="M20.001 65.9528C21.1065 65.9528 22.0026 65.0574 22.0026 63.9528C22.0026 62.8482 21.1065 61.9528 20.001 61.9528C18.8956 61.9528 17.9995 62.8482 17.9995 63.9528C17.9995 65.0574 18.8956 65.9528 20.001 65.9528Z" fill="#FF9F0D"/>
<path d="M28.001 59.957C29.1065 59.957 30.0026 59.0616 30.0026 57.957C30.0026 56.8524 29.1065 55.957 28.001 55.957C26.8956 55.957 25.9995 56.8524 25.9995 57.957C25.9995 59.0616 26.8956 59.957 28.001 59.957Z" fill="#FF9F0D"/>
<path d="M48.0015 57.9586C49.107 57.9586 50.0031 57.0632 50.0031 55.9586C50.0031 54.854 49.107 53.9586 48.0015 53.9586C46.8961 53.9586 46 54.854 46 55.9586C46 57.0632 46.8961 57.9586 48.0015 57.9586Z" fill="#FF9F0D"/>
<path d="M14.0025 75.9449C15.1079 75.9449 16.004 75.0495 16.004 73.9449C16.004 72.8403 15.1079 71.9449 14.0025 71.9449C12.8971 71.9449 12.001 72.8403 12.001 73.9449C12.001 75.0495 12.8971 75.9449 14.0025 75.9449Z" fill="#FF9F0D"/>
<path d="M24.0018 73.9465C25.1072 73.9465 26.0033 73.0511 26.0033 71.9465C26.0033 70.8419 25.1072 69.9465 24.0018 69.9465C22.8964 69.9465 22.0002 70.8419 22.0002 71.9465C22.0002 73.0511 22.8964 73.9465 24.0018 73.9465Z" fill="#FF9F0D"/>
<path d="M32.0013 67.9509C33.1067 67.9509 34.0028 67.0555 34.0028 65.951C34.0028 64.8464 33.1067 63.951 32.0013 63.951C30.8959 63.951 29.9998 64.8464 29.9998 65.951C29.9998 67.0555 30.8959 67.9509 32.0013 67.9509Z" fill="#FF9F0D"/>
<path d="M114 21.9831H86V13.9893C86 12.8856 86.8954 11.9908 88 11.9908H104C107.314 11.9908 110 9.30657 110 5.9954C110 2.68423 107.314 0 104 0H86C79.3753 0.00660969 74.0066 5.37121 74 11.9908V21.9831H46C42.6863 21.9831 40 24.6674 40 27.9785V29.977C40.0085 32.5524 41.6659 34.8333 44.114 35.6387L44.86 46.0787C43.912 46.0227 42.966 45.9648 42 45.9648C39.1032 45.9709 36.2131 46.2425 33.366 46.7761L28.514 40.481C33.16 35.8845 33.418 30.4666 31.028 27.369C28.638 24.2714 23.312 23.1443 17.698 26.4537L16.4 24.761C15.9713 24.1749 15.2582 23.8671 14.5373 23.9571C13.8163 24.0471 13.2009 24.5207 12.9297 25.1943C12.6586 25.8678 12.7743 26.6353 13.232 27.1991L14.536 28.8938C9.874 33.4903 9.646 38.9202 12.022 42.0058C14.44 45.1414 19.786 46.2026 25.352 42.9211L29.1 47.7834C14.484 51.9602 4 62.9917 4 75.9418C3.99526 76.8214 4.04603 77.7005 4.152 78.5738C4.39272 80.824 5.88099 82.7471 8 83.5459V87.9326C3.97646 87.9276 0.577869 90.915 0.0699343 94.9033C-0.438 98.8916 2.10345 102.634 6 103.637V107.917C6.00077 110.914 7.13112 113.801 9.166 116.003H2C0.89543 116.003 0 116.898 0 118.002C0 119.105 0.89543 120 2 120H118C119.105 120 120 119.105 120 118.002C120 116.898 119.105 116.003 118 116.003H107.514C109.349 114.019 110.456 111.472 110.656 108.779L115.886 35.6347C118.333 34.8303 119.99 32.5512 120 29.977V27.9785C120 24.6674 117.314 21.9831 114 21.9831ZM15.184 39.5697C13.584 37.4873 15.052 34.2018 17 32.0994L18.108 33.5363C18.5367 34.1225 19.2498 34.4302 19.9707 34.3402C20.6917 34.2502 21.3071 33.7766 21.5783 33.103C21.8494 32.4295 21.7337 31.662 21.276 31.0982L20.168 29.6613C22.586 28.3762 26.216 27.6808 27.86 29.8131C29.848 32.3912 27.196 36.6299 24.574 38.6484C21.952 40.6668 17.174 42.1477 15.184 39.5697ZM78 11.9908C78 7.57591 81.5817 3.99694 86 3.99694H104C105.105 3.99694 106 4.89168 106 5.9954C106 7.09913 105.105 7.99387 104 7.99387H88C84.6863 7.99387 82 10.6781 82 13.9893V21.9831H78V11.9908ZM111.136 45.9648H48.862L48.148 35.9724H111.852L111.136 45.9648ZM107.42 97.9249H83.716C83.8961 97.2737 83.9916 96.602 84 95.9265C84 91.5116 80.4183 87.9326 76 87.9326V83.5359C78.112 82.7464 79.5988 80.8356 79.844 78.5957C79.952 77.7153 80.0041 76.8288 80 75.9418C80 75.1864 79.926 74.4449 79.856 73.7035C83.8008 72.7677 86.4184 69.0274 85.9442 65.0039C85.47 60.9804 82.0544 57.95 78 57.9556C76.4297 57.9644 74.8978 58.4411 73.6 59.3245C70.0997 55.3061 65.7551 52.1091 60.876 49.9617H110.852L107.42 97.9249ZM76 91.9295C78.2091 91.9295 80 93.719 80 95.9265C80 98.1339 78.2091 99.9234 76 99.9234H38.828L46.828 91.9295H76ZM78 107.917V103.637C79.1975 103.324 80.3055 102.737 81.236 101.922H107.134L106.666 108.491C106.346 112.666 102.87 115.895 98.68 115.911H74.92C76.9017 113.719 77.9992 110.871 78 107.917ZM75.946 62.552C76.5622 62.1668 77.2731 61.9593 78 61.9525C79.9758 61.9437 81.6585 63.3853 81.9516 65.3377C82.2447 67.2901 81.0594 69.1616 79.168 69.7325C78.467 67.1888 77.3804 64.7672 75.946 62.552ZM31.716 51.1828L36.416 57.2801C37.0923 58.1477 38.3431 58.3062 39.2148 57.6348C40.0865 56.9634 40.2515 55.7144 39.584 54.84L36.142 50.3754C38.0833 50.108 40.0403 49.9698 42 49.9617C60.748 49.9617 76 61.6168 76 75.9418C76.0024 76.6765 75.9597 77.4106 75.872 78.1401C75.7689 79.1651 74.903 79.9439 73.872 79.9387H10.12C9.08146 79.9369 8.21497 79.1455 8.12 78.1121C8.03576 77.3918 7.99568 76.667 8 75.9418C8 64.3507 17.982 54.5222 31.716 51.1828ZM12 83.9356H72V87.9326H46C45.4696 87.9327 44.961 88.1433 44.586 88.5181L30.096 102.995L17.496 88.6061C17.1167 88.1781 16.5721 87.9329 16 87.9326H12V83.9356ZM4 95.9265C4 93.719 5.79086 91.9295 8 91.9295H15.092L22.092 99.9234H8C5.79086 99.9234 4 98.1339 4 95.9265ZM18 115.911C13.5817 115.911 10 112.332 10 107.917V103.92H25.6L27.096 105.629C27.8264 106.46 28.8679 106.952 29.974 106.99H30.104C31.1652 106.989 32.1828 106.568 32.934 105.819L34.828 103.92H74V107.917C74 112.332 70.4183 115.911 66 115.911H18ZM116 29.977C116 31.0807 115.105 31.9755 114 31.9755H46C44.8954 31.9755 44 31.0807 44 29.977V27.9785C44 26.8748 44.8954 25.9801 46 25.9801H114C115.105 25.9801 116 26.8748 116 27.9785V29.977Z" fill="#FF9F0D"/>
<path d="M98.0003 53.9586C93.582 53.9586 90.0002 57.5376 90.0002 61.9525C90.0002 66.3674 93.582 69.9464 98.0003 69.9464C102.419 69.9464 106 66.3674 106 61.9525C106 57.5376 102.419 53.9586 98.0003 53.9586ZM98.0003 65.9494C95.7911 65.9494 94.0002 64.1599 94.0002 61.9525C94.0002 59.745 95.7911 57.9556 98.0003 57.9556C100.209 57.9556 102 59.745 102 61.9525C102 64.1599 100.209 65.9494 98.0003 65.9494Z" fill="#FF9F0D"/>
<path d="M91.9998 79.9386C88.686 79.9386 85.9998 82.6229 85.9998 85.934C85.9998 89.2452 88.686 91.9294 91.9998 91.9294C95.3135 91.9294 97.9998 89.2452 97.9998 85.934C97.9998 82.6229 95.3135 79.9386 91.9998 79.9386ZM91.9998 87.9325C90.8952 87.9325 89.9998 87.0378 89.9998 85.934C89.9998 84.8303 90.8952 83.9356 91.9998 83.9356C93.1043 83.9356 93.9998 84.8303 93.9998 85.934C93.9998 87.0378 93.1043 87.9325 91.9998 87.9325Z" fill="#FF9F0D"/>
</svg>
