<svg width="56" height="56" viewBox="0 0 56 56" fill="none" xmlns="http://www.w3.org/2000/svg">
<path d="M10.6751 21C10.414 20.9994 10.1563 20.9405 9.92103 20.8274C9.68571 20.7144 9.47866 20.5501 9.31506 20.3466C9.15146 20.1432 9.03545 19.9057 8.97554 19.6516C8.91563 19.3975 8.91332 19.1332 8.9688 18.8781C10.3688 12.1406 18.3532 7 28.0001 7C37.6469 7 45.6313 12.1406 47.0313 18.8781C47.0868 19.1332 47.0845 19.3975 47.0246 19.6516C46.9646 19.9057 46.8486 20.1432 46.685 20.3466C46.5214 20.5501 46.3144 20.7144 46.0791 20.8274C45.8438 20.9405 45.5861 20.9994 45.325 21H10.6751Z" stroke="white" stroke-width="2" stroke-linecap="round" stroke-linejoin="round"/>
<path d="M45.5 36.75V40.25C45.5 42.1065 44.7625 43.887 43.4497 45.1997C42.137 46.5125 40.3565 47.25 38.5 47.25H17.5C15.6435 47.25 13.863 46.5125 12.5503 45.1997C11.2375 43.887 10.5 42.1065 10.5 40.25V36.75" stroke="white" stroke-width="2" stroke-linecap="round" stroke-linejoin="round"/>
<path d="M6.125 38.5L14.875 35L23.625 38.5L32.375 35L41.125 38.5L49.875 35" stroke="white" stroke-width="2" stroke-linecap="round" stroke-linejoin="round"/>
<path d="M5.25 28H50.75" stroke="white" stroke-width="2" stroke-linecap="round" stroke-linejoin="round"/>
</svg>
