<svg width="120" height="120" viewBox="0 0 120 120" fill="none" xmlns="http://www.w3.org/2000/svg">
<path d="M89.2009 47.9741L96.2514 47.5248C96.2633 47.5238 96.2761 47.5229 96.289 47.522C101.313 47.0957 105.823 44.4487 108.663 40.2577L114.237 32.0341C119.088 24.8747 120.968 16.2275 119.528 7.68623C119.245 6.00872 118.392 4.46288 117.126 3.33502C115.86 2.20625 114.232 1.53966 112.542 1.45864C103.935 1.04433 95.6261 3.95833 89.1405 9.66021L81.6899 16.211C77.8932 19.5485 75.8205 24.3683 76.0017 29.4368C76.0026 29.4487 76.0026 29.4616 76.0036 29.4745L76.4055 36.5666C76.562 39.3315 75.554 42.0595 73.6452 44.0464L15.4376 104.181C13.8793 105.815 13.0746 108.057 13.1725 110.494C13.2806 113.177 14.5046 115.812 16.4474 117.544C18.2025 119.108 20.6149 119.999 23.0264 119.999C23.2846 119.999 23.5428 119.989 23.8 119.968C26.2179 119.774 28.3356 118.702 29.7693 116.94L82.144 51.6311C83.8808 49.4822 86.4534 48.149 89.2009 47.9741ZM79.348 49.3551L26.9778 114.658C26.1777 115.642 24.9472 116.247 23.5135 116.362C21.8078 116.5 20.0592 115.929 18.8342 114.837C17.6092 113.744 16.8365 112.067 16.7678 110.348C16.7092 108.903 17.1588 107.602 18.0249 106.694L76.2279 46.5645C78.8371 43.8493 80.2104 40.1307 79.998 36.3613L79.5961 29.2876C79.4597 25.3203 81.0848 21.5482 84.0575 18.9344L91.5081 12.3836C97.2906 7.30046 104.701 4.70502 112.371 5.07146C113.245 5.11381 114.085 5.45815 114.74 6.04187C115.394 6.62467 115.835 7.42384 115.981 8.29021C117.265 15.9053 115.589 23.6134 111.264 29.9956L105.691 38.2202C103.467 41.5016 99.9374 43.5759 96.0042 43.9156L88.973 44.3631C85.2266 44.6025 81.7201 46.4199 79.348 49.3551Z" fill="#FF9F0D"/>
<path d="M116.677 103.724L77.6489 67.9762C76.9147 67.3031 75.7776 67.3565 75.1074 68.0949C74.4391 68.8333 74.4922 69.9778 75.2264 70.6508L114.244 106.39C115.173 107.253 115.699 108.524 115.728 109.97C115.761 111.69 115.09 113.411 113.932 114.575C112.775 115.739 111.067 116.416 109.353 116.381C107.915 116.352 106.651 115.823 105.802 114.899L71.0251 76.5027C70.3558 75.7634 69.2178 75.7109 68.4836 76.383C67.7493 77.0561 67.6962 78.2005 68.3655 78.9389L103.151 117.345C104.68 119.007 106.857 119.95 109.282 119.998C109.345 119.999 109.408 120 109.471 120C112.077 120 114.684 118.937 116.476 117.134C118.312 115.287 119.377 112.583 119.324 109.899C119.276 107.46 118.34 105.271 116.677 103.724Z" fill="#FF9F0D"/>
<path d="M21.7052 47.6314C24.6825 50.3898 28.5506 51.9624 32.5972 52.06C32.6101 52.0609 32.6229 52.0609 32.6348 52.0609L39.699 52.083C42.4529 52.0913 45.0997 53.267 46.9573 55.3026L50.0692 58.7378C50.4244 59.13 50.9105 59.3288 51.3994 59.3288C51.8316 59.3288 52.2655 59.1732 52.6098 58.8574C53.3449 58.1844 53.398 57.04 52.7288 56.3016L49.6123 52.8619C47.0745 50.0795 43.4655 48.4775 39.7109 48.4646L32.6659 48.4426C29.5357 48.3624 26.5428 47.1573 24.2238 45.0461L3.75169 20.5722C3.54295 20.3218 3.55852 19.959 3.78832 19.7279C3.94579 19.5687 4.13072 19.5456 4.22685 19.5456C4.32298 19.5456 4.50792 19.5687 4.66631 19.7279L23.301 38.4687C25.143 40.3211 28.1404 40.3211 29.9825 38.4678L32.1724 36.2664V36.2654L36.0607 32.3553C36.0607 32.3553 36.0616 32.3553 36.0616 32.3543L36.0625 32.3534L38.2515 30.152C40.0936 28.2996 40.0936 25.2853 38.2515 23.4328L19.6169 4.693C19.3752 4.44994 19.3752 4.05312 19.6169 3.81006C19.8467 3.57896 20.2074 3.56331 20.4564 3.77323L44.793 24.3618C46.8932 26.693 48.0916 29.7037 48.1713 32.8506L48.1923 39.9363C48.2052 43.7111 49.7991 47.3405 52.5695 49.8982L55.9038 52.9521C56.639 53.6251 57.7761 53.5717 58.4453 52.8333C59.1137 52.094 59.0606 50.9505 58.3263 50.2775L54.9975 47.2282C52.9677 45.3555 51.7995 42.6928 51.7904 39.9243L51.7684 32.8202C51.7684 32.8073 51.7684 32.7944 51.7675 32.7815C51.6704 28.7121 50.1067 24.8221 47.3638 21.828C47.3125 21.7719 47.2576 21.7185 47.199 21.6688L22.7718 1.0047C21.0836 -0.424216 18.6336 -0.317415 17.0735 1.25145C15.4283 2.90594 15.4283 5.59712 17.0735 7.25069L35.7082 25.9914C36.1477 26.4334 36.1477 27.1524 35.7082 27.5944L34.7899 28.5169L14.0212 7.63186C13.319 6.92477 12.18 6.92477 11.4778 7.63186C10.7756 8.33803 10.7756 9.48337 11.4778 10.1895L32.2466 31.0755L30.9008 32.428L10.132 11.543C9.4298 10.8368 8.29088 10.8368 7.58867 11.543C6.88555 12.2491 6.88555 13.3945 7.58867 14.1007L28.3565 34.9866L27.4391 35.9101C26.9997 36.352 26.2847 36.352 25.8452 35.9101L7.20964 17.1703C6.41313 16.3692 5.35387 15.9273 4.22685 15.9273C3.09984 15.9273 2.04057 16.3692 1.24406 17.1703C-0.315996 18.7391 -0.421282 21.2029 0.998702 22.9016L21.5477 47.4657C21.5963 47.5246 21.6494 47.5799 21.7052 47.6314Z" fill="#FF9F0D"/>
</svg>
