<svg width="56" height="56" viewBox="0 0 56 56" fill="none" xmlns="http://www.w3.org/2000/svg">
<path d="M49 27.8687C49.0203 30.6512 48.4852 33.4097 47.426 35.9827C46.3667 38.5557 44.8046 40.8914 42.8312 42.8531C34.7594 50.925 21.5469 51.0125 13.3656 43.05C10.3641 40.1292 8.30448 36.3778 7.45134 32.2775C6.59819 28.1773 6.99051 23.9156 8.57789 20.0401C10.1653 16.1645 12.8752 12.8521 16.3595 10.5284C19.8438 8.20478 23.9433 6.976 28.1312 6.99998C28.3933 7.00384 28.6512 7.06578 28.8864 7.18134C29.1216 7.29689 29.3283 7.46319 29.4915 7.66823C29.6547 7.87328 29.7704 8.11198 29.8302 8.36712C29.89 8.62226 29.8925 8.8875 29.8375 9.14373C29.6096 10.16 29.6113 11.2144 29.8426 12.2299C30.0738 13.2455 30.5288 14.1966 31.1744 15.014C31.8199 15.8314 32.6397 16.4944 33.574 16.9548C34.5083 17.4151 35.5335 17.6612 36.575 17.675C37.0391 17.675 37.4842 17.8594 37.8124 18.1875C38.1406 18.5157 38.325 18.9609 38.325 19.425C38.3388 20.4664 38.5848 21.4917 39.0452 22.426C39.5055 23.3603 40.1686 24.1801 40.986 24.8256C41.8033 25.4711 42.7545 25.9261 43.77 26.1574C44.7856 26.3887 45.8399 26.3904 46.8562 26.1625C47.1125 26.1074 47.3777 26.1099 47.6329 26.1698C47.888 26.2296 48.1267 26.3453 48.3317 26.5085C48.5368 26.6717 48.7031 26.8783 48.8186 27.1136C48.9342 27.3488 48.9961 27.6067 49 27.8687V27.8687Z" stroke="white" stroke-width="2" stroke-linecap="round" stroke-linejoin="round"/>
<path d="M34.125 40.25C35.5747 40.25 36.75 39.0747 36.75 37.625C36.75 36.1753 35.5747 35 34.125 35C32.6753 35 31.5 36.1753 31.5 37.625C31.5 39.0747 32.6753 40.25 34.125 40.25Z" fill="white"/>
<path d="M20.125 38.5C21.5747 38.5 22.75 37.3247 22.75 35.875C22.75 34.4253 21.5747 33.25 20.125 33.25C18.6753 33.25 17.5 34.4253 17.5 35.875C17.5 37.3247 18.6753 38.5 20.125 38.5Z" fill="white"/>
<path d="M18.375 26.25C19.8247 26.25 21 25.0747 21 23.625C21 22.1753 19.8247 21 18.375 21C16.9253 21 15.75 22.1753 15.75 23.625C15.75 25.0747 16.9253 26.25 18.375 26.25Z" fill="white"/>
<path d="M29.75 29.75C31.1997 29.75 32.375 28.5747 32.375 27.125C32.375 25.6753 31.1997 24.5 29.75 24.5C28.3003 24.5 27.125 25.6753 27.125 27.125C27.125 28.5747 28.3003 29.75 29.75 29.75Z" fill="white"/>
</svg>
