<svg width="56" height="56" viewBox="0 0 56 56" fill="none" xmlns="http://www.w3.org/2000/svg">
<path d="M28 38.5V50.75" stroke="white" stroke-width="2" stroke-linecap="round" stroke-linejoin="round"/>
<path d="M19.25 50.75H36.75" stroke="white" stroke-width="2" stroke-linecap="round" stroke-linejoin="round"/>
<path d="M17.5001 5.25H38.5001L44.2094 24.5656C44.5613 25.7756 44.4682 27.0715 43.9469 28.2187C42.5604 31.2864 40.3185 33.8891 37.49 35.7147C34.6616 37.5403 31.3665 38.5113 28.0001 38.5113C24.6336 38.5113 21.3386 37.5403 18.5101 35.7147C15.6816 33.8891 13.4397 31.2864 12.0532 28.2187C11.5319 27.0715 11.4388 25.7756 11.7907 24.5656L17.5001 5.25Z" stroke="white" stroke-width="2" stroke-linecap="round" stroke-linejoin="round"/>
<path d="M12.5781 21.9406C14.8969 20.6938 20.2781 18.9 28 22.75C36.225 26.8625 41.8031 24.5438 43.8375 23.3406" stroke="white" stroke-width="2" stroke-linecap="round" stroke-linejoin="round"/>
</svg>
