<svg width="120" height="120" viewBox="0 0 120 120" fill="none" xmlns="http://www.w3.org/2000/svg">
<path d="M113.789 81.4836C110.895 83.506 107.57 84.8207 104.079 85.3223C100.588 85.824 97.0282 85.4987 93.685 84.3725C93.3821 84.2642 93.0577 84.2308 92.7392 84.2752C92.4207 84.3196 92.1176 84.4403 91.8555 84.6272L82.8582 91.0289L85.1735 94.3009L93.3371 88.4831C97.1526 89.6014 101.169 89.8515 105.093 89.2154C109.017 88.5793 112.75 87.0728 116.02 84.8058C117.199 84.007 118.316 83.1205 119.362 82.1537L116.65 79.2046C115.755 80.0358 114.799 80.7977 113.789 81.4836Z" fill="#FF9F0D"/>
<path d="M93.6548 51.5438C90.7931 53.3784 88.5006 55.9806 87.0373 59.0554C85.574 62.1302 84.9982 65.5548 85.3752 68.9412L60.0286 85.2432L34.678 68.9512C35.0632 65.5638 34.4901 62.1359 33.0245 59.0599C31.5589 55.984 29.2598 53.3841 26.3904 51.5579C22.5815 48.9237 17.9498 47.7648 13.3542 48.2959C11.1864 48.5088 9.09226 49.1993 7.22121 50.3181C5.35016 51.437 3.74837 52.9565 2.53023 54.7682C1.31208 56.5799 0.507622 58.6391 0.174288 60.7989C-0.159046 62.9586 -0.0130305 65.1655 0.601907 67.262C1.83378 71.7341 4.64061 75.6061 8.5016 78.1594C11.2661 80.1479 14.5333 81.3142 17.9283 81.5246C21.3232 81.735 24.7086 80.981 27.696 79.3491L47.3723 93.3661L28.6477 105.413C27.7627 105.977 26.9995 106.714 26.4034 107.58C25.8073 108.445 25.3904 109.422 25.1775 110.452C24.9646 111.483 24.9599 112.545 25.1638 113.577C25.3677 114.609 25.7759 115.59 26.3644 116.461C26.9506 117.33 27.7039 118.073 28.5802 118.645C29.4565 119.218 30.438 119.61 31.467 119.796C32.4961 119.983 33.5521 119.962 34.5728 119.734C35.5936 119.505 36.5586 119.075 37.4112 118.467L60.0286 102.374L82.646 118.479C83.4995 119.106 84.4703 119.553 85.5002 119.794C86.5301 120.035 87.5978 120.065 88.6396 119.882C89.6813 119.699 90.6755 119.307 91.5626 118.73C92.4497 118.152 93.2115 117.401 93.8024 116.521C94.3932 115.641 94.8009 114.65 95.0011 113.608C95.2012 112.566 95.1897 111.494 94.9672 110.457C94.7447 109.42 94.3158 108.438 93.7062 107.571C93.0965 106.704 92.3188 105.969 91.4194 105.411L72.6729 93.3741L92.3632 79.3511C95.3502 80.9836 98.7354 81.7383 102.13 81.5286C105.525 81.3188 108.793 80.1533 111.558 78.1655C119.775 72.6004 122.458 62.1002 117.534 54.7577C112.609 47.4152 101.89 45.9788 93.6548 51.5438ZM35.0959 115.203C34.2416 115.78 33.1963 115.999 32.1833 115.814C31.1702 115.628 30.2695 115.053 29.6734 114.21C29.3849 113.783 29.1848 113.302 29.0849 112.796C28.9851 112.29 28.9875 111.769 29.0921 111.264C29.1967 110.758 29.4014 110.279 29.6939 109.855C29.9864 109.431 30.3609 109.07 30.7951 108.793L50.8872 95.8657L56.5636 99.9061L35.0959 115.203ZM90.9596 111.265C91.1162 112.026 91.0409 112.817 90.7435 113.535C90.446 114.252 89.9402 114.864 89.2918 115.289C88.6434 115.714 87.8825 115.934 87.108 115.919C86.3335 115.905 85.5814 115.656 84.9493 115.207L28.8877 75.2846C28.5458 75.0414 28.1365 74.9121 27.7174 74.915C27.2984 74.9179 26.8908 75.0528 26.5523 75.3007C24.1837 76.8517 21.3988 77.6383 18.5716 77.5547C15.7444 77.4711 13.0105 76.5215 10.737 74.8332C7.67804 72.82 5.45033 69.7623 4.46678 66.2269C3.99615 64.6825 3.8756 63.0521 4.11396 61.4549C4.35232 59.8577 4.94355 58.3343 5.8444 56.9959C6.74525 55.6576 7.93291 54.5383 9.32049 53.7199C10.7081 52.9016 12.2605 52.4048 13.864 52.266C17.4991 51.8567 21.1588 52.7832 24.165 54.874C26.575 56.3582 28.4746 58.5465 29.609 61.1454C30.7435 63.7442 31.0583 66.6291 30.5112 69.4126C30.4084 69.8207 30.4361 70.2508 30.5904 70.6421C30.7447 71.0335 31.0178 71.3663 31.3709 71.5933L89.2621 108.791C89.6963 109.068 90.0704 109.43 90.3621 109.855C90.6538 110.28 90.857 110.759 90.9596 111.265ZM109.314 74.8292C107.04 76.517 104.305 77.4661 101.478 77.5489C98.6504 77.6318 95.8653 76.8444 93.4968 75.2927C93.1583 75.0448 92.7508 74.9099 92.3317 74.907C91.9127 74.9041 91.5033 75.0334 91.1615 75.2766L69.042 91.0329L63.7395 87.6225L88.6802 71.5732C89.0326 71.3464 89.3052 71.0143 89.4594 70.6238C89.6137 70.2333 89.6418 69.804 89.54 69.3966C89.0038 66.6125 89.3245 63.7307 90.4594 61.1339C91.5944 58.5371 93.4899 56.3482 95.8941 54.858C102.292 50.5307 110.518 51.4857 114.215 56.9805C117.912 62.4754 115.71 70.502 109.314 74.8292Z" fill="#FF9F0D"/>
<path d="M21.8938 3.67709L19.6805 0.334839C14.8507 3.5459 11.2286 8.28405 9.38943 13.7968C7.5503 19.3095 7.59957 25.2807 9.52942 30.7621L13.2983 29.422C11.6665 24.7832 11.6262 19.7303 13.1839 15.0658C14.7415 10.4014 17.8079 6.39291 21.8958 3.67709H21.8938Z" fill="#FF9F0D"/>
<path d="M17.5412 36.6482C16.5785 35.5524 15.7253 34.3644 14.994 33.1013L11.533 35.1075C12.3965 36.6008 13.4044 38.0051 14.5421 39.3003L17.5412 36.6482Z" fill="#FF9F0D"/>
<path d="M81.9825 68.6102L87.6748 40.0546C92.3028 39.6506 96.5957 37.4664 99.6554 33.9591C102.715 30.4518 104.304 25.8932 104.091 21.237C103.877 16.5808 101.877 12.188 98.5093 8.97752C95.1414 5.76709 90.6667 3.98785 86.0213 4.01211C81.9783 3.99774 78.0513 5.36706 74.8886 7.89401C73.2412 5.46198 71.0259 3.47121 68.4359 2.09527C65.8458 0.719328 62.9596 0 60.0289 0C57.0982 0 54.212 0.719328 51.6219 2.09527C49.0319 3.47121 46.8166 5.46198 45.1692 7.89401C42.0065 5.36706 38.0794 3.99774 34.0365 4.01211C29.407 4.01168 24.9554 5.80153 21.6073 9.00953C18.2591 12.2175 16.272 16.5969 16.0591 21.2371C15.8462 25.8772 17.4238 30.4213 20.464 33.9244C23.5042 37.4275 27.773 39.6202 32.383 40.0466L38.0753 68.6102L41.9942 67.8238L40.8745 62.1905H79.1833L78.0636 67.8077L81.9825 68.6102ZM72.3313 58.1782L74.0048 46.4262L70.046 45.8564L68.2925 58.1782H62.0283V36.1105H58.0295V58.1782H51.7653L50.0118 45.8564L46.053 46.4262L47.7265 58.1782H40.0747L35.9959 37.7155C35.9037 37.2623 35.6583 36.8551 35.3013 36.5626C34.9442 36.2701 34.4974 36.1104 34.0365 36.1105C30.3245 36.1105 26.7646 34.631 24.1399 31.9974C21.5151 29.3638 20.0406 25.7919 20.0406 22.0675C20.0406 18.343 21.5151 14.7711 24.1399 12.1375C26.7646 9.50395 30.3245 8.02441 34.0365 8.02441C35.9419 8.01951 37.8278 8.40892 39.5765 9.16832C41.3251 9.92771 42.8989 11.0408 44.1995 12.4379C44.4217 12.6737 44.6977 12.8519 45.0036 12.9572C45.3096 13.0625 45.6364 13.0917 45.9561 13.0424C46.2758 12.9931 46.5788 12.8667 46.8391 12.6741C47.0994 12.4814 47.3092 12.2283 47.4506 11.9364C48.5928 9.56299 50.3788 7.56082 52.6037 6.15975C54.8286 4.75868 57.4021 4.01548 60.0289 4.01548C62.6557 4.01548 65.2292 4.75868 67.4541 6.15975C69.679 7.56082 71.465 9.56299 72.6072 11.9364C72.7486 12.2283 72.9584 12.4814 73.2187 12.6741C73.479 12.8667 73.782 12.9931 74.1017 13.0424C74.4214 13.0917 74.7482 13.0625 75.0542 12.9572C75.3601 12.8519 75.6361 12.6737 75.8583 12.4379C77.1589 11.0408 78.7327 9.92771 80.4813 9.16832C82.23 8.40892 84.1159 8.01951 86.0213 8.02441C89.7333 8.02441 93.2932 9.50395 95.9179 12.1375C98.5427 14.7711 100.017 18.343 100.017 22.0675C100.017 25.7919 98.5427 29.3638 95.9179 31.9974C93.2932 34.631 89.7333 36.1105 86.0213 36.1105C85.5604 36.1104 85.1136 36.2701 84.7565 36.5626C84.3995 36.8551 84.1541 37.2623 84.0619 37.7155L79.9831 58.1782H72.3313Z" fill="#FF9F0D"/>
</svg>
